<?xml version="1.0" encoding="utf-8"?>
<!-- Generator: Adobe Illustrator 21.0.0, SVG Export Plug-In . SVG Version: 6.00 Build 0)  -->
<svg version="1.1" id="图层_1" xmlns="http://www.w3.org/2000/svg" xmlns:xlink="http://www.w3.org/1999/xlink" x="0px" y="0px"
	 viewBox="0 0 612 792" style="enable-background:new 0 0 612 792;" xml:space="preserve">
<style type="text/css">
	.st0{clip-path:url(#SVGID_2_);fill:#C8C8C8;}
</style>
<g>
	<g>
		<defs>
			<rect id="SVGID_1_" x="-104" y="12" width="819.9" height="768"/>
		</defs>
		<clipPath id="SVGID_2_">
			<use xlink:href="#SVGID_1_"  style="overflow:visible;"/>
		</clipPath>
		<path class="st0" d="M663.9,88.8H562.3c0-42.4-34.4-76.8-76.8-76.8h-12.8c-42.4,0-76.8,34.4-76.8,76.8h-180
			c0-21.2-8.6-40.4-22.5-54.3C179.5,20.6,160.3,12,139.1,12h-12.8c-42.4,0-76.8,34.4-76.8,76.8H-52.9c-28.2,0-51.2,22.9-51.2,51.2
			v588.8c0,28.2,23,51.2,51.2,51.2h716.8c28.2,0,51.2-23,51.2-51.2V140C715.1,111.7,692.1,88.8,663.9,88.8L663.9,88.8z M447.1,95.2
			c0-17.7,14.3-32,32-32c17.7,0,32,14.3,32,32v64c0,17.7-14.3,32-32,32c-8.8,0-16.8-3.6-22.6-9.4c-5.8-5.8-9.4-13.8-9.4-22.6V95.2z
			 M100.7,95.2c0-17.7,14.3-32,32-32c17.7,0,32,14.3,32,32v64c0,17.7-14.3,32-32,32c-8.8,0-16.8-3.6-22.6-9.4
			c-5.8-5.8-9.4-13.8-9.4-22.6V95.2z M663.9,703.2c0,14.2-11.4,25.6-25.6,25.6H-27.3c-14.2,0-25.6-11.4-25.6-25.6V344.8h716.8V703.2
			z M663.9,703.2"/>
	</g>
</g>
</svg>
