<?xml version="1.0" encoding="utf-8"?>
<!-- Generator: Adobe Illustrator 21.0.0, SVG Export Plug-In . SVG Version: 6.00 Build 0)  -->
<svg version="1.1" id="图层_1" xmlns="http://www.w3.org/2000/svg" xmlns:xlink="http://www.w3.org/1999/xlink" x="0px" y="0px"
	 viewBox="0 0 612 792" style="enable-background:new 0 0 612 792;" xml:space="preserve">
<style type="text/css">
	.st0{opacity:0.2;fill:#3C9CD8;}
	.st1{opacity:0.5;fill:#3C9CD8;}
	.st2{fill:#3C9CD8;}
</style>
<path class="st0" d="M114,567.8L114,567.8c-21.8,0-39.7-17.9-39.7-39.7V235.8c0-21.8,17.9-39.7,39.7-39.7h0
	c21.8,0,39.7,17.9,39.7,39.7v292.3C153.7,549.9,135.9,567.8,114,567.8z"/>
<path class="st1" d="M299.9,616L299.9,616c-21.8,0-39.7-17.9-39.7-39.7V187.5c0-21.8,17.9-39.7,39.7-39.7h0
	c21.8,0,39.7,17.9,39.7,39.7v388.8C339.6,598.2,321.7,616,299.9,616z"/>
<path class="st2" d="M485.7,681L485.7,681c-21.8,0-39.7-17.9-39.7-39.7V122.6c0-21.8,17.9-39.7,39.7-39.7h0
	c21.8,0,39.7,17.9,39.7,39.7v518.7C525.4,663.1,507.6,681,485.7,681z"/>
</svg>
