<svg id="图层_1" data-name="图层 1" xmlns="http://www.w3.org/2000/svg" xmlns:xlink="http://www.w3.org/1999/xlink" viewBox="0 0 868.12 819.2"><defs><style>.cls-1{fill:none;}.cls-2{clip-path:url(#clip-path);}.cls-3{fill:white;}</style><clipPath id="clip-path" transform="translate(-64.88 -90.52)"><rect class="cls-1" x="65" y="90" width="868.8" height="820.72"/></clipPath></defs><title>icon-1</title><g class="cls-2"><path class="cls-3" d="M932.73,244.06A150.6,150.6,0,0,0,889,130.85C814,60.3,660.82,85.47,498.87,183,336.92,85.4,183.68,60.23,108.79,130.74A150.64,150.64,0,0,0,65,244a487.55,487.55,0,0,0,97.63,256A487.48,487.48,0,0,0,65,755.88,150.62,150.62,0,0,0,108.79,869.2,167.45,167.45,0,0,0,227,909.48,560.45,560.45,0,0,0,498.94,817.1a560.48,560.48,0,0,0,272,92.38,167.41,167.41,0,0,0,118.2-40.28A150.6,150.6,0,0,0,932.84,756a487.38,487.38,0,0,0-97.63-256,487.2,487.2,0,0,0,97.63-256ZM855.93,166a102.52,102.52,0,0,1,28.6,78.1,425.16,425.16,0,0,1-79.55,214A1110.74,1110.74,0,0,0,683.56,324.26a1138.94,1138.94,0,0,0-138.8-112.09c133.2-75.35,256-98.06,311.17-46.21ZM775.91,500A1045.63,1045.63,0,0,1,650.44,640.57,1069.85,1069.85,0,0,1,498.83,759.89,1072.65,1072.65,0,0,1,347.26,640.57,1047.4,1047.4,0,0,1,221.79,499.88,1045.49,1045.49,0,0,1,347.26,359.19,1072.43,1072.43,0,0,1,498.87,239.87,1071.7,1071.7,0,0,1,650.48,359.19,1045.59,1045.59,0,0,1,775.91,500Zm-662.78-256a102.59,102.59,0,0,1,28.6-78.1,121,121,0,0,1,85.34-28,494.34,494.34,0,0,1,226,74.42A1137.81,1137.81,0,0,0,314.21,324.3,1111.56,1111.56,0,0,0,192.79,458.08a425.31,425.31,0,0,1-79.55-214Zm28.6,590a102.61,102.61,0,0,1-28.6-78.1,425.25,425.25,0,0,1,79.55-214A1112.41,1112.41,0,0,0,314.1,675.79,1137.33,1137.33,0,0,0,452.91,787.88c-133.21,75.35-256.07,98-311.18,46.21ZM884.53,756a102.53,102.53,0,0,1-28.6,78.1C800.86,886,678,863.3,544.65,787.73A1135.74,1135.74,0,0,0,683.49,675.64,1111.49,1111.49,0,0,0,804.91,541.86,425.29,425.29,0,0,1,884.53,756Zm0,0" transform="translate(-64.88 -90.52)"/></g><path class="cls-3" d="M401.64,475.73A96.73,96.73,0,1,0,498.36,379a96.73,96.73,0,0,0-96.72,96.73Zm0,0" transform="translate(-64.88 -90.52)"/></svg>