<?xml version="1.0" encoding="utf-8"?>
<!-- Generator: Adobe Illustrator 21.0.0, SVG Export Plug-In . SVG Version: 6.00 Build 0)  -->
<svg version="1.1" id="图层_1" xmlns="http://www.w3.org/2000/svg" xmlns:xlink="http://www.w3.org/1999/xlink" x="0px" y="0px"
	 viewBox="0 0 612 792" style="enable-background:new 0 0 612 792;" xml:space="preserve">
<style type="text/css">
	.st0{fill:url(#SVGID_1_);}
</style>
<g>
	<g>
		<linearGradient id="SVGID_1_" gradientUnits="userSpaceOnUse" x1="-23.2083" y1="547.2885" x2="634.8782" y2="167.3421">
			<stop  offset="1.935676e-07" style="stop-color:#3796FF"/>
			<stop  offset="1" style="stop-color:#A691FD"/>
		</linearGradient>
		<path class="st0" d="M290.4,184.9c0-1.4,0.2-2.9,0.6-4.2L51.5,112.1c-5.8-1.4-10.4-2-14.8-2c-23,0-47.7,16.7-47.7,53.6l0.5,284.3
			c0,0.6,0.1,1,0.2,1.6v106.2c0,13.9,5.4,39.2,42.2,51.1l258.6,74.8V184.9z M64.2,285.1c3-11.3,14.6-18.1,25.9-15L232.8,308
			c11.3,3,18.1,14.6,15,25.9c-2.6,9.5-11.1,15.8-20.5,15.8c-1.8,0-3.6-0.2-5.4-0.7L79.2,311C68,308.1,61.2,296.4,64.2,285.1
			L64.2,285.1z M247.9,488.5c-2.6,9.5-11.1,15.8-20.5,15.8c-1.8,0-3.6-0.2-5.4-0.7L79.3,465.6c-11.3-3-18.1-14.6-15-25.9
			c3-11.3,14.6-18,25.9-15l142.6,37.9C244.2,465.6,250.9,477.2,247.9,488.5L247.9,488.5z M574.9,110c-4.4,0-9,0.6-14.8,2
			l-239.5,68.6c0.4,1.4,0.6,2.7,0.6,4.2v497L579.7,607c36.7-11.9,42.2-37.2,42.2-51.1l0.6-392.2C622.5,126.8,597.8,110,574.9,110
			L574.9,110z M540.2,465.6l-142.7,37.9c-1.8,0.5-3.7,0.7-5.4,0.7c-9.4,0-18-6.3-20.5-15.8c-3-11.3,3.8-23,15-25.9l142.6-37.9
			c11.3-3,23,3.8,25.9,15C558.2,451,551.5,462.6,540.2,465.6L540.2,465.6z M540.2,311L397.5,349c-1.8,0.5-3.7,0.7-5.4,0.7
			c-9.4,0-18-6.3-20.5-15.8c-3-11.3,3.8-23,15-25.9l142.6-37.9c11.3-3,23,3.8,25.9,15C558.2,296.4,551.5,308.1,540.2,311L540.2,311z
			 M540.2,311"/>
	</g>
</g>
</svg>
