<svg t="1712251065381" class="icon" viewBox="0 0 1024 1024" version="1.1" xmlns="http://www.w3.org/2000/svg" p-id="8156" data-spm-anchor-id="a313x.search_index.0.i6.1c5c3a81luIAN2" width="200" height="200"><path d="M1024 511.968C1024 229.216 794.784 0 512.032 0S0.064 229.216 0.064 511.968s229.216 511.968 511.968 511.968S1024 794.72 1024 511.968m-431.936 259.392c-22.752 9.088-41.12 15.84-54.816 20.96a142.528 142.528 0 0 1-44.64 7.008l-3.2-0.032h0.16a94.24 94.24 0 0 1-64.864-20.448l0.192 0.16a65.792 65.792 0 0 1-23.136-50.144l0.032-1.536v0.064c0-8.768 0.608-17.408 1.792-25.856l-0.128 0.992c1.6-11.168 3.552-20.8 6.048-30.208l-0.416 1.792 28.992-101.536c2.592-9.696 4.736-19.008 6.432-27.936 1.568-7.072 2.528-15.232 2.656-23.584v-0.096a36.864 36.864 0 0 0-8.096-27.168l0.064 0.064a44.928 44.928 0 0 0-31.072-7.808l0.224-0.032a81.6 81.6 0 0 0-23.36 3.584l0.576-0.16c-8.64 2.496-15.264 4.736-21.792 7.264l1.824-0.608 7.392-31.072q27.936-11.456 53.92-19.616a157.312 157.312 0 0 1 48.8-8.16h0.096a92.448 92.448 0 0 1 64 20.128l-0.192-0.16c13.792 12.224 22.432 29.984 22.432 49.76l-0.032 2.016v-0.096q0 6.976-1.536 23.264a154.368 154.368 0 0 1-5.92 31.68l0.288-1.088-28.64 101.024c-2.144 7.232-4.32 16.64-6.048 26.208l-0.256 1.696a138.016 138.016 0 0 0-2.848 23.392v0.288a33.472 33.472 0 0 0 9.088 27.424 51.552 51.552 0 0 0 31.36 7.328h-0.192c8.48-0.224 16.576-1.536 24.256-3.808l-0.672 0.16c7.424-1.92 13.792-4.128 19.872-6.816l-0.8 0.32-7.744 31.296m-7.936-410.272a63.904 63.904 0 1 1 0-90.24c11.52 11.552 18.624 27.52 18.624 45.12s-7.104 33.536-18.624 45.12" p-id="8157" fill="color" data-spm-anchor-id="a313x.search_index.0.i3.1c5c3a81luIAN2" class=""></path></svg>