<?xml version="1.0" encoding="utf-8"?>
<!-- Generator: Adobe Illustrator 21.0.0, SVG Export Plug-In . SVG Version: 6.00 Build 0)  -->
<svg version="1.1" id="图层_1" xmlns="http://www.w3.org/2000/svg" xmlns:xlink="http://www.w3.org/1999/xlink" x="0px" y="0px"
	 viewBox="0 0 612 792" style="enable-background:new 0 0 612 792;" xml:space="preserve">
<style type="text/css">
	.st0{clip-path:url(#SVGID_2_);fill:url(#SVGID_3_);}
	.st1{fill:url(#SVGID_4_);}
	.st2{fill:url(#SVGID_5_);}
</style>
<g>
	<g>
		<defs>
			<rect id="SVGID_1_" x="-104" y="-14" width="819.8" height="820.7"/>
		</defs>
		<clipPath id="SVGID_2_">
			<use xlink:href="#SVGID_1_"  style="overflow:visible;"/>
		</clipPath>
		<linearGradient id="SVGID_3_" gradientUnits="userSpaceOnUse" x1="-104.12" y1="396.1195" x2="715.079" y2="396.1195">
			<stop  offset="1.935676e-07" style="stop-color:#4B8AC9"/>
			<stop  offset="1" style="stop-color:#998EC3"/>
		</linearGradient>
		<path class="st0" d="M631.2,805.7H435.5v-54.6h195.7c15.4,0,28-12.2,28-27.3V532.7h55.9v191.1
			C715.1,769.1,677.5,805.7,631.2,805.7L631.2,805.7z M659.2,68.4c0-15.1-12.5-27.3-28-27.3H435.5v-54.6h195.7
			c46.3,0,83.9,36.7,83.9,81.9v191.1h-55.9V68.4z M-48.2,68.4v191.1h-55.9V68.4c0-45.3,37.6-81.9,83.9-81.9h195.7v54.6H-20.2
			C-35.7,41.1-48.2,53.4-48.2,68.4L-48.2,68.4z M-48.2,723.8c0,15.1,12.5,27.3,28,27.3h195.7v54.6H-20.2
			c-46.3,0-83.9-36.7-83.9-81.9V532.7h55.9V723.8z M242.2,503c19.2,8,35.8,13.4,51.5,13.4c17.1,0,33.1-5.6,50.8-13.3
			c9.9-4.2,21.9-0.8,26.9,7.5c5,8.3,1,18.6-8.9,22.7c-25.6,10.3-46.7,17-68.8,16.8c-21-0.2-42.9-6.7-69.5-16.9
			c-7-2.7-11.5-8.6-11.4-15.1C212.9,505.4,228.8,497.4,242.2,503L242.2,503z M242.2,503"/>
	</g>
	<linearGradient id="SVGID_4_" gradientUnits="userSpaceOnUse" x1="46.931" y1="396.147" x2="545.22" y2="396.147">
		<stop  offset="1.935676e-07" style="stop-color:#4B8AC9"/>
		<stop  offset="1" style="stop-color:#998EC3"/>
	</linearGradient>
	<path class="st1" d="M296.1,659.1c-66.9,0-129.6-27.6-176.7-77.6c-46.7-49.6-72.4-115.4-72.4-185.3c0-69.9,25.7-135.8,72.4-185.4
		c47.1-50,109.9-77.5,176.7-77.5s129.6,27.6,176.7,77.5c46.7,49.6,72.4,115.4,72.4,185.3c0,69.9-25.7,135.7-72.4,185.3
		C425.7,631.5,362.9,659.1,296.1,659.1L296.1,659.1z M296.1,187.8c-107.3,0-194.5,93.5-194.5,208.3c0,114.9,87.3,208.3,194.5,208.3
		c107.3,0,194.5-93.4,194.5-208.3C490.6,281.2,403.3,187.8,296.1,187.8L296.1,187.8z M296.1,187.8"/>
	<linearGradient id="SVGID_5_" gradientUnits="userSpaceOnUse" x1="-65.89" y1="358.7215" x2="676.848" y2="358.7215">
		<stop  offset="1.935676e-07" style="stop-color:#4B8AC9"/>
		<stop  offset="1" style="stop-color:#998EC3"/>
	</linearGradient>
	<rect x="-65.9" y="331.4" class="st2" width="742.7" height="54.6"/>
</g>
</svg>
